0
SECTION
2
HEADER
9
$INSUNITS
70
4
9
$MEASUREMENT
70
1
0
ENDSEC
0
SECTION
2
ENTITIES
0
LINE
8
MURS
10
0
20
7000
30
0
11
10000
21
7000
31
0
0
LINE
8
MURS
10
10000
20
7000
30
0
11
10000
21
0
31
0
0
LINE
8
MURS
10
10000
20
0
30
0
11
0
21
0
31
0
0
LINE
8
MURS
10
0
20
0
30
0
11
0
21
7000
31
0
0
LINE
8
CLOISONS
10
5000
20
7000
30
0
11
5000
21
5400
31
0
0
LINE
8
CLOISONS
10
5000
20
4500
30
0
11
5000
21
0
31
0
0
LINE
8
CLOISONS
10
0
20
3000
30
0
11
1200
21
3000
31
0
0
LINE
8
CLOISONS
10
2100
20
3000
30
0
11
5000
21
3000
31
0
0
LINE
8
CLOISONS
10
2500
20
3000
30
0
11
2500
21
1900
31
0
0
LINE
8
CLOISONS
10
2500
20
1000
30
0
11
2500
21
0
31
0
0
LINE
8
CLOISONS
10
5000
20
3500
30
0
11
6400
21
3500
31
0
0
LINE
8
CLOISONS
10
7300
20
3500
30
0
11
10000
21
3500
31
0
0
TEXT
8
TEXTES
10
2500
20
5000
30
0
40
250
1
SEJOUR
72
1
11
2500
21
5000
31
0
0
TEXT
8
TEXTES
10
2500
20
4650
30
0
40
180
1
20.00 m2
72
1
11
2500
21
4650
31
0
0
TEXT
8
TEXTES
10
7500
20
5250
30
0
40
250
1
CUISINE
72
1
11
7500
21
5250
31
0
0
TEXT
8
TEXTES
10
7500
20
4900
30
0
40
180
1
17.50 m2
72
1
11
7500
21
4900
31
0
0
TEXT
8
TEXTES
10
1250
20
1500
30
0
40
250
1
HALL
72
1
11
1250
21
1500
31
0
0
TEXT
8
TEXTES
10
1250
20
1150
30
0
40
180
1
7.50 m2
72
1
11
1250
21
1150
31
0
0
TEXT
8
TEXTES
10
3750
20
1500
30
0
40
250
1
CHAMBRE
72
1
11
3750
21
1500
31
0
0
TEXT
8
TEXTES
10
3750
20
1150
30
0
40
180
1
7.50 m2
72
1
11
3750
21
1150
31
0
0
TEXT
8
TEXTES
10
7500
20
1750
30
0
40
250
1
SALLE DE BAIN
72
1
11
7500
21
1750
31
0
0
TEXT
8
TEXTES
10
7500
20
1400
30
0
40
180
1
17.50 m2
72
1
11
7500
21
1400
31
0
0
LINE
8
COTES
10
0
20
-900
30
0
11
10000
21
-900
31
0
0
TEXT
8
TEXTES
10
2500
20
-1150
30
0
40
220
1
5.00 m
72
1
11
2500
21
-1150
31
0
0
TEXT
8
TEXTES
10
7500
20
-1150
30
0
40
220
1
5.00 m
72
1
11
7500
21
-1150
31
0
0
TEXT
8
TEXTES
10
5000
20
7500
30
0
40
350
1
APPARTEMENT TYPE - PLAN DE NIVEAU
72
1
11
5000
21
7500
31
0
0
ENDSEC
0
EOF
